<svg xmlns="http://www.w3.org/2000/svg" viewBox="0 0 468.83 99.75"><defs><style>.cls-1{fill:#231815;}.cls-2{fill:#00223a;}</style></defs><g id="レイヤー_2" data-name="レイヤー 2"><g id="レイヤー_1-2" data-name="レイヤー 1"><path class="cls-1" d="M43,.44,0,99.57a.13.13,0,0,0,.12.18H23.4a.14.14,0,0,0,.12-.09l8.26-21.33a.13.13,0,0,1,.12-.08H70.44a.11.11,0,0,1,.11.08l8.66,21.25a.12.12,0,0,0,.12.08h24.48a.13.13,0,0,0,.12-.18L60.56.44a.14.14,0,0,0-.12-.07H43.11A.14.14,0,0,0,43,.44ZM38.78,60.15,50.7,29a.13.13,0,0,1,.24,0L63,60.15a.13.13,0,0,1-.12.18h-24A.13.13,0,0,1,38.78,60.15Z"/><path class="cls-1" d="M174.34,48.21q5.49-7.4,5.49-17.95,0-8.72-3-14.57a24.72,24.72,0,0,0-8.16-9.29,34.37,34.37,0,0,0-12-4.92A67.74,67.74,0,0,0,142.24,0H104.46a.13.13,0,0,0-.13.13v99.4a.13.13,0,0,0,.13.13h21a.13.13,0,0,0,.13-.13V60a.13.13,0,0,1,.13-.13h9.11a.12.12,0,0,1,.11.07l22.29,39.7a.12.12,0,0,0,.11.07h26a.13.13,0,0,0,.11-.2L156.86,57.73a.13.13,0,0,1,.09-.19C163.92,56.2,170.71,53.09,174.34,48.21ZM155.26,36.46a10.3,10.3,0,0,1-4.43,3.3,19.42,19.42,0,0,1-6,1.27q-3.32.21-6.27.21H125.76a.13.13,0,0,1-.13-.13V18.71a.13.13,0,0,1,.13-.13H140a44.93,44.93,0,0,1,6,.42,17.56,17.56,0,0,1,5.49,1.62,10.3,10.3,0,0,1,3.94,3.45A10.45,10.45,0,0,1,157,30.12,10,10,0,0,1,155.26,36.46Z"/><path class="cls-1" d="M180.79,20.05H209a.13.13,0,0,1,.13.13V99.5a.13.13,0,0,0,.13.13h23a.13.13,0,0,0,.13-.13V20.18a.12.12,0,0,1,.12-.13h26.86a.13.13,0,0,0,.13-.13V.75a.12.12,0,0,0-.13-.12H180.79a.12.12,0,0,0-.13.12V19.92A.13.13,0,0,0,180.79,20.05Z"/><path class="cls-1" d="M286.63,59.71h44.25a.12.12,0,0,0,.13-.12v-20a.12.12,0,0,0-.13-.12H286.63a.13.13,0,0,1-.13-.13V21a.12.12,0,0,1,.13-.12h46.74a.13.13,0,0,0,.13-.13V1.26a.13.13,0,0,0-.13-.13H264.89a.13.13,0,0,0-.13.13V99.13a.13.13,0,0,0,.13.13l71,0a.13.13,0,0,0,.13-.13V80.34a.13.13,0,0,0-.13-.13l-49.31,0a.13.13,0,0,1-.13-.13l0-20.22A.13.13,0,0,1,286.63,59.71Z"/><path class="cls-1" d="M365.41.35H343.33a.13.13,0,0,0-.13.13V99.4a.13.13,0,0,0,.13.13l56.48,0a.13.13,0,0,0,.13-.13V80.51a.13.13,0,0,0-.13-.13l-34.24.09a.13.13,0,0,1-.13-.13l.1-79.86A.12.12,0,0,0,365.41.35Z"/><path class="cls-1" d="M426.62,80.08V.94a.12.12,0,0,0-.13-.12h-21.7a.12.12,0,0,0-.13.12l0,98.49a.13.13,0,0,0,.13.13h63.92a.13.13,0,0,0,.13-.13l0-19.13a.13.13,0,0,0-.13-.13l-41.95,0A.13.13,0,0,1,426.62,80.08Z"/><path class="cls-2" d="M43,.44,0,99.57a.13.13,0,0,0,.12.18H23.4a.14.14,0,0,0,.12-.09l8.26-21.33a.13.13,0,0,1,.12-.08H70.44a.11.11,0,0,1,.11.08l8.66,21.25a.12.12,0,0,0,.12.08h24.48a.13.13,0,0,0,.12-.18L60.56.44a.14.14,0,0,0-.12-.07H43.11A.14.14,0,0,0,43,.44ZM38.78,60.15,50.7,29a.13.13,0,0,1,.24,0L63,60.15a.13.13,0,0,1-.12.18h-24A.13.13,0,0,1,38.78,60.15Z"/><path class="cls-2" d="M174.34,48.21q5.49-7.4,5.49-17.95,0-8.72-3-14.57a24.72,24.72,0,0,0-8.16-9.29,34.37,34.37,0,0,0-12-4.92A67.74,67.74,0,0,0,142.24,0H104.46a.13.13,0,0,0-.13.13v99.4a.13.13,0,0,0,.13.13h21a.13.13,0,0,0,.13-.13V60a.13.13,0,0,1,.13-.13h9.11a.12.12,0,0,1,.11.07l22.29,39.7a.12.12,0,0,0,.11.07h26a.13.13,0,0,0,.11-.2L156.86,57.73a.13.13,0,0,1,.09-.19C163.92,56.2,170.71,53.09,174.34,48.21ZM155.26,36.46a10.3,10.3,0,0,1-4.43,3.3,19.42,19.42,0,0,1-6,1.27q-3.32.21-6.27.21H125.76a.13.13,0,0,1-.13-.13V18.71a.13.13,0,0,1,.13-.13H140a44.93,44.93,0,0,1,6,.42,17.56,17.56,0,0,1,5.49,1.62,10.3,10.3,0,0,1,3.94,3.45A10.45,10.45,0,0,1,157,30.12,10,10,0,0,1,155.26,36.46Z"/><path class="cls-2" d="M180.79,20.05H209a.13.13,0,0,1,.13.13V99.5a.13.13,0,0,0,.13.13h23a.13.13,0,0,0,.13-.13V20.18a.12.12,0,0,1,.12-.13h26.86a.13.13,0,0,0,.13-.13V.75a.12.12,0,0,0-.13-.12H180.79a.12.12,0,0,0-.13.12V19.92A.13.13,0,0,0,180.79,20.05Z"/><path class="cls-2" d="M286.63,59.71h44.25a.12.12,0,0,0,.13-.12v-20a.12.12,0,0,0-.13-.12H286.63a.13.13,0,0,1-.13-.13V21a.12.12,0,0,1,.13-.12h46.74a.13.13,0,0,0,.13-.13V1.26a.13.13,0,0,0-.13-.13H264.89a.13.13,0,0,0-.13.13V99.13a.13.13,0,0,0,.13.13l71,0a.13.13,0,0,0,.13-.13V80.34a.13.13,0,0,0-.13-.13l-49.31,0a.13.13,0,0,1-.13-.13l0-20.22A.13.13,0,0,1,286.63,59.71Z"/><path class="cls-2" d="M365.41.35H343.33a.13.13,0,0,0-.13.13V99.4a.13.13,0,0,0,.13.13l56.48,0a.13.13,0,0,0,.13-.13V80.51a.13.13,0,0,0-.13-.13l-34.24.09a.13.13,0,0,1-.13-.13l.1-79.86A.12.12,0,0,0,365.41.35Z"/><path class="cls-2" d="M426.62,80.08V.94a.12.12,0,0,0-.13-.12h-21.7a.12.12,0,0,0-.13.12l0,98.49a.13.13,0,0,0,.13.13h63.92a.13.13,0,0,0,.13-.13l0-19.13a.13.13,0,0,0-.13-.13l-41.95,0A.13.13,0,0,1,426.62,80.08Z"/></g></g></svg>